<?xml version="1.0" standalone="no"?>
<!DOCTYPE svg PUBLIC "-//W3C//DTD SVG 20010904//EN"
 "http://www.w3.org/TR/2001/REC-SVG-20010904/DTD/svg10.dtd">
<svg version="1.0" xmlns="http://www.w3.org/2000/svg"
 width="700.000000pt" height="700.000000pt" viewBox="0 0 700.000000 700.000000"
 preserveAspectRatio="xMidYMid meet">
<metadata>
Created by potrace 1.14, written by Peter Selinger 2001-2017
</metadata>
<g transform="translate(0.000000,700.000000) scale(0.100000,-0.100000)"
fill="#000000" stroke="none">
<path d="M3469 6566 c-2 -2 -58 -6 -124 -10 -66 -3 -129 -8 -140 -10 -11 -2
-42 -7 -70 -10 -43 -6 -162 -27 -230 -42 -11 -2 -30 -6 -42 -8 -57 -12 -190
-52 -303 -93 -156 -56 -280 -120 -382 -195 -74 -55 -81 -58 -101 -45 -132 85
-358 79 -491 -13 -180 -124 -254 -349 -172 -522 44 -92 157 -193 238 -213 21
-5 26 -12 22 -28 -11 -54 -43 -256 -48 -297 -23 -210 -27 -270 -27 -440 0
-134 5 -226 15 -340 9 -92 18 -165 21 -170 2 -4 7 -44 10 -91 3 -46 8 -97 10
-114 2 -16 7 -108 11 -202 l7 -173 -42 0 c-64 0 -179 -29 -234 -60 -65 -36
-106 -76 -128 -125 -24 -52 -24 -76 2 -108 11 -15 22 -35 24 -46 11 -56 71
-96 133 -87 20 3 81 28 135 56 54 27 100 50 103 50 5 0 -1 -111 -11 -210 -2
-25 -7 -87 -11 -139 -3 -51 -7 -110 -9 -130 -20 -201 -26 -643 -12 -806 10
-111 31 -236 57 -336 24 -95 79 -247 91 -255 5 -3 9 -12 9 -20 0 -39 153 -252
234 -324 l28 -26 -78 -58 c-146 -109 -204 -184 -207 -270 -2 -52 27 -119 60
-137 14 -7 41 -29 61 -47 33 -32 40 -34 87 -30 41 3 67 14 121 50 38 26 84 61
103 78 60 58 144 110 208 130 l64 20 52 -21 c106 -43 314 -101 403 -114 22 -3
44 -8 51 -10 6 -2 38 -7 70 -10 32 -4 69 -8 82 -10 179 -29 582 -21 801 15 30
6 73 12 95 16 103 15 387 95 409 115 6 5 15 9 22 9 7 0 46 16 87 35 41 19 80
35 87 35 20 0 106 -67 136 -107 92 -122 173 -185 239 -185 94 0 205 102 205
188 0 37 -30 115 -61 161 -28 40 -116 129 -168 171 l-24 19 47 49 c130 137
257 384 322 631 28 107 28 108 40 173 4 25 8 47 9 50 1 3 5 32 9 65 4 32 9 66
11 75 27 143 27 961 -1 1133 l-5 29 54 -31 c29 -17 79 -37 111 -45 50 -13 63
-13 91 -2 35 15 65 50 65 77 0 9 9 26 20 39 31 36 34 64 12 112 -26 56 -56 88
-112 121 -54 31 -161 66 -214 69 -30 3 -40 8 -43 23 -3 22 -6 456 -4 755 0
102 -1 214 -4 250 -6 95 -15 201 -20 235 -2 17 -7 53 -10 80 -3 28 -7 61 -9
75 -3 14 -7 45 -10 70 -3 25 -8 54 -10 65 -40 194 -57 276 -65 303 l-10 32 63
29 c80 36 162 117 200 196 90 191 -3 448 -202 553 -73 39 -125 52 -203 53 -92
0 -150 -15 -230 -59 -45 -25 -48 -25 -70 -9 -200 146 -426 244 -649 282 -19 3
-53 10 -75 15 -22 5 -71 12 -110 15 -38 4 -79 9 -90 11 -10 2 -91 6 -180 9
-88 3 -169 8 -181 10 -12 3 -23 3 -25 1z"/>
</g>
</svg>
