<?xml version="1.0" standalone="no"?>
<!DOCTYPE svg PUBLIC "-//W3C//DTD SVG 20010904//EN"
 "http://www.w3.org/TR/2001/REC-SVG-20010904/DTD/svg10.dtd">
<svg version="1.0" xmlns="http://www.w3.org/2000/svg"
 width="512.000000pt" height="512.000000pt" viewBox="0 0 512.000000 512.000000"
 preserveAspectRatio="xMidYMid meet">
<metadata>
Created by potrace 1.14, written by Peter Selinger 2001-2017
</metadata>
<g transform="translate(0.000000,512.000000) scale(0.100000,-0.100000)"
fill="#000000" stroke="none">
<path d="M2218 5105 c-78 -29 -132 -77 -175 -160 -26 -49 -27 -55 -29 -243 -2
-107 -4 -195 -6 -196 -2 -1 -41 -15 -88 -31 -97 -32 -241 -93 -305 -128 l-43
-24 -113 114 c-133 134 -179 168 -249 186 -63 16 -152 6 -209 -23 -22 -11
-134 -114 -249 -228 -248 -248 -262 -270 -258 -397 3 -109 21 -140 172 -293
68 -69 124 -131 124 -137 0 -5 -22 -55 -49 -110 -28 -55 -67 -151 -88 -212
l-38 -113 -170 -1 c-206 -2 -210 -2 -270 -30 -64 -30 -130 -99 -154 -162 -19
-48 -20 -73 -18 -367 2 -305 3 -316 25 -360 31 -64 88 -119 152 -149 52 -24
65 -25 235 -27 99 -1 185 -2 192 -3 6 -1 15 -16 18 -33 10 -47 78 -217 128
-320 l43 -88 -128 -127 c-98 -98 -133 -139 -153 -184 -44 -99 -32 -214 32
-298 15 -19 114 -122 220 -228 214 -213 245 -234 353 -241 115 -7 160 18 318
174 l136 133 40 -24 c57 -33 258 -118 334 -140 55 -16 62 -21 63 -44 0 -14 1
-93 1 -176 0 -95 6 -167 14 -195 32 -108 116 -187 224 -210 38 -8 148 -11 350
-8 286 3 296 4 336 26 62 34 114 89 143 151 27 59 26 51 30 387 l1 50 73 23
c88 27 244 93 313 131 l51 28 135 -133 c158 -155 203 -180 318 -173 108 6 139
28 370 258 242 242 255 263 254 385 0 44 -2 87 -5 95 -18 53 -62 109 -168 215
-67 66 -121 124 -121 130 0 5 18 45 39 87 40 80 101 231 122 306 7 23 15 42
18 43 3 0 89 2 191 3 174 2 188 4 240 27 64 30 122 86 153 149 21 43 22 57 24
360 2 295 1 318 -18 367 -34 88 -142 177 -227 188 -15 1 -104 3 -197 4 l-171
1 -17 58 c-28 91 -68 190 -118 289 l-46 92 128 130 c156 158 174 190 174 311
0 75 -4 91 -29 134 -15 26 -119 139 -231 250 -229 229 -257 248 -371 254 -114
6 -162 -20 -318 -177 l-129 -129 -31 19 c-55 32 -249 114 -328 139 -75 23 -78
26 -78 55 -3 193 -8 344 -13 361 -20 76 -88 158 -164 195 -47 24 -53 24 -363
26 -243 1 -323 -1 -352 -12z"/>
</g>
</svg>
