<?xml version="1.0" standalone="no"?>
<!DOCTYPE svg PUBLIC "-//W3C//DTD SVG 20010904//EN"
 "http://www.w3.org/TR/2001/REC-SVG-20010904/DTD/svg10.dtd">
<svg version="1.0" xmlns="http://www.w3.org/2000/svg"
 width="512.000000pt" height="512.000000pt" viewBox="0 0 512.000000 512.000000"
 preserveAspectRatio="xMidYMid meet">
<metadata>
Created by potrace 1.14, written by Peter Selinger 2001-2017
</metadata>
<g transform="translate(0.000000,512.000000) scale(0.100000,-0.100000)"
fill="#000000" stroke="none">
<path d="M1844 4684 c-308 -66 -551 -266 -664 -548 -19 -46 -34 -71 -47 -73
-10 -1 -34 -5 -53 -8 -109 -15 -309 -98 -368 -152 -7 -7 -17 -13 -21 -13 -16
0 -163 -155 -202 -212 -55 -81 -104 -187 -131 -283 -32 -116 -32 -344 0 -462
12 -45 22 -84 22 -86 0 -2 -22 -18 -48 -35 -140 -91 -247 -235 -302 -407 -25
-79 -35 -245 -19 -330 47 -257 221 -470 459 -562 54 -21 67 -25 125 -40 25 -6
920 -13 1616 -13 l176 0 18 -47 c117 -312 385 -602 748 -812 194 -112 363
-181 441 -181 191 0 340 188 295 373 -17 71 -44 111 -137 204 -101 98 -136
154 -193 301 -5 13 -12 56 -15 95 l-7 72 474 0 c428 0 481 2 550 19 238 58
447 254 524 491 23 71 29 117 29 225 1 88 -4 131 -21 199 -10 44 -70 168 -104
218 -44 65 -159 175 -212 203 l-44 23 15 41 c38 111 52 293 32 421 -53 344
-315 639 -645 727 -52 14 -133 31 -159 32 -4 1 -17 26 -29 56 -104 279 -358
497 -653 559 -242 51 -516 -4 -706 -142 l-26 -19 -45 31 c-65 44 -184 97 -274
122 -96 26 -306 33 -399 13z"/>
</g>
</svg>
